<svg xmlns="http://www.w3.org/2000/svg" xmlns:xlink="http://www.w3.org/1999/xlink" viewBox="0 0 100 125" version="1.1" x="0px" y="0px"><title>Sink</title><desc>Created with Sketch.</desc><g stroke="none" stroke-width="1" fill="none" fill-rule="evenodd"><g fill="#FFFFFF"><g transform="translate(10.000000, 0.000000)"><path d="M74.2138384,36.8816162 L72.199697,36.8816162 L7.24111111,36.8816162 L5.76939394,36.8816162 C4.25929293,36.8816162 3.03,35.6523232 3.03,34.1412121 C3.03,32.6311111 4.25929293,31.4018182 5.76939394,31.4018182 L74.2138384,31.4018182 C75.7239394,31.4018182 76.9532323,32.6311111 76.9532323,34.1412121 C76.9532323,35.6523232 75.7239394,36.8816162 74.2138384,36.8816162 M48.1734343,60.9078788 L47.3855556,60.9078788 C46.5491919,60.9078788 45.870404,61.5866667 45.870404,62.4230303 L45.870404,96.8573737 L32.7825253,96.8573737 L32.7825253,62.4230303 C32.7825253,61.5866667 32.1047475,60.9078788 31.2673737,60.9078788 C19.3643434,60.9078788 9.58858586,51.6210101 8.80676768,39.9119192 L70.6340404,39.9119192 C69.8522222,51.6210101 60.0764646,60.9078788 48.1734343,60.9078788 M74.2138384,28.3715152 L58.8027273,28.3715152 L58.8027273,24.5917172 L62.7835354,24.5917172 C63.619899,24.5917172 64.2986869,23.9129293 64.2986869,23.0765657 C64.2986869,22.240202 63.619899,21.5614141 62.7835354,21.5614141 L51.7916162,21.5614141 C50.9552525,21.5614141 50.2764646,22.240202 50.2764646,23.0765657 C50.2764646,23.9129293 50.9552525,24.5917172 51.7916162,24.5917172 L55.7724242,24.5917172 L55.7724242,28.3715152 L43.589596,28.3715152 L43.589596,8.45636364 C43.589596,3.79373737 39.7956566,-0.000202020202 35.1330303,-0.000202020202 C30.4693939,-0.000202020202 26.6764646,3.79373737 26.6764646,8.45636364 L26.6764646,11.0644444 C26.6764646,11.9018182 27.3552525,12.579596 28.1916162,12.579596 C29.0289899,12.579596 29.7067677,11.9018182 29.7067677,11.0644444 L29.7067677,8.45636364 C29.7067677,5.46444444 32.1411111,3.03010101 35.1330303,3.03010101 C38.1239394,3.03010101 40.5592929,5.46444444 40.5592929,8.45636364 L40.5592929,28.3715152 L24.2108081,28.3715152 L24.2108081,24.5917172 L28.1916162,24.5917172 C29.0289899,24.5917172 29.7067677,23.9129293 29.7067677,23.0765657 C29.7067677,22.240202 29.0289899,21.5614141 28.1916162,21.5614141 L17.2007071,21.5614141 C16.3643434,21.5614141 15.6855556,22.240202 15.6855556,23.0765657 C15.6855556,23.9129293 16.3643434,24.5917172 17.2007071,24.5917172 L21.1805051,24.5917172 L21.1805051,28.3715152 L5.76939394,28.3715152 C2.58858586,28.3715152 -0.000303030303,30.960404 -0.000303030303,34.1412121 C-0.000303030303,37.3230303 2.58858586,39.9119192 5.76939394,39.9119192 L5.77545455,39.9119192 C6.5330303,52.7907071 16.8734343,63.1361616 29.7522222,63.8937374 L29.7522222,98.3725253 C29.7522222,99.2088889 30.4310101,99.8876768 31.2673737,99.8876768 L47.3855556,99.8876768 C48.2229293,99.8876768 48.9007071,99.2088889 48.9007071,98.3725253 L48.9007071,63.9280808 C62.1441414,63.5563636 72.8926263,53.0523232 73.6653535,39.9119192 L74.2138384,39.9119192 C77.3946465,39.9119192 79.9835354,37.3230303 79.9835354,34.1412121 C79.9835354,30.960404 77.3946465,28.3715152 74.2138384,28.3715152"/></g></g></g></svg>